<?xml version="1.0" encoding="utf-8"?>
<!-- Generator: Adobe Illustrator 16.0.4, SVG Export Plug-In . SVG Version: 6.00 Build 0)  -->
<!DOCTYPE svg PUBLIC "-//W3C//DTD SVG 1.1//EN" "http://www.w3.org/Graphics/SVG/1.1/DTD/svg11.dtd">
<svg version="1.1" id="Layer_1" xmlns="http://www.w3.org/2000/svg" xmlns:xlink="http://www.w3.org/1999/xlink" x="0px" y="0px"
	 width="800px" height="800px" viewBox="0 0 800 800" enable-background="new 0 0 800 800" xml:space="preserve">
<path d="M229.093,148.354h175.935c84.777,0,146.021,47.013,146.021,128.212c0,49.155-24.223,88.326-62.707,108.272v1.418
	c52.729,15.675,82.639,65.532,82.639,121.802c0,94.732-73.359,143.164-161.677,143.164H229.093V148.354z M405.027,359.899
	c45.58,0,74.08-32.062,74.08-76.21c0-44.159-27.052-74.072-75.506-74.072H299.605v150.282H405.027z M412.867,589.971
	c54.132,0,86.194-34.2,86.194-85.468c0-51.297-34.208-86.194-86.93-86.194H299.605v171.662H412.867z"/>
</svg>
