<?xml version="1.0" encoding="utf-8"?>
<!-- Generator: Adobe Illustrator 16.0.4, SVG Export Plug-In . SVG Version: 6.00 Build 0)  -->
<!DOCTYPE svg PUBLIC "-//W3C//DTD SVG 1.1//EN" "http://www.w3.org/Graphics/SVG/1.1/DTD/svg11.dtd">
<svg version="1.1" id="Layer_1" xmlns="http://www.w3.org/2000/svg" xmlns:xlink="http://www.w3.org/1999/xlink" x="0px" y="0px"
	 width="800px" height="800px" viewBox="0 0 800 800" enable-background="new 0 0 800 800" xml:space="preserve">
<path fill="#D12025" d="M169.756,427.148l575.423-17.846c-4.243,67.567-13.062,106.467-44.854,163.472L169.756,427.148z
	 M637.283,655.271c-32.619,31.868-67.673,56.674-105.087,74.381L148.074,473.599l551.042,101.431
	C681.89,604.891,661.663,630.926,637.283,655.271z M703.889,232.351c30.808,58.199,37.938,92.717,41.29,159.792l-576.911-19.807
	L703.889,232.351z M548.034,76.774c31.771,16.774,61.556,38.884,89.249,66.22c26.858,26.821,48.615,55.849,65.335,86.838
	l-556.826,96.173L548.034,76.774z M306.967,43.489c23.567-4.53,48.073-6.814,73.579-6.814c59.61,0,114.265,12.764,163.979,38.291
	L119.052,283.209L306.967,43.489z M55.188,236.068c17.07-33.457,39.94-64.462,68.526-93.074
	c50.664-50.645,108.899-83.237,174.613-97.686L81.511,249.28L55.188,236.068z M317.623,757.799
	c-73.087-12.177-137.754-46.322-193.909-102.527c-27.21-27.229-49.249-56.541-65.993-88.01l28.306-15.203L317.623,757.799z
	 M529.025,731.174c-45.912,21.125-95.424,31.741-148.479,31.741c-19.007,0-37.482-1.337-55.438-3.903L122.499,517.155
	L529.025,731.174z"/>
</svg>
