<?xml version="1.0" encoding="utf-8"?>
<!-- Generator: Adobe Illustrator 16.0.4, SVG Export Plug-In . SVG Version: 6.00 Build 0)  -->
<!DOCTYPE svg PUBLIC "-//W3C//DTD SVG 1.1//EN" "http://www.w3.org/Graphics/SVG/1.1/DTD/svg11.dtd">
<svg version="1.1" id="Layer_1" xmlns="http://www.w3.org/2000/svg" xmlns:xlink="http://www.w3.org/1999/xlink" x="0px" y="0px"
	 width="800px" height="800px" viewBox="0 0 800 800" enable-background="new 0 0 800 800" xml:space="preserve">
<path d="M414.857,162.093c129.578,0,197.059,95.365,197.059,213.251c0,11.677-2.703,33.28-2.703,33.28H276.3
	c5.385,100.766,76.46,154.764,157.467,154.764c79.152,0,135.854-51.273,135.854-51.273l36.021,63.889
	c0,0-68.437,62.965-177.29,62.965c-143.083,0-241.147-103.479-241.147-238.459C187.205,255.656,285.268,162.093,414.857,162.093z
	 M521.931,352.823C519.26,272.76,470.625,231.36,413.033,231.36c-66.569,0-120.536,45.02-133.128,121.463H521.931z"/>
</svg>
