<?xml version="1.0" encoding="utf-8"?>
<!-- Generator: Adobe Illustrator 16.0.4, SVG Export Plug-In . SVG Version: 6.00 Build 0)  -->
<!DOCTYPE svg PUBLIC "-//W3C//DTD SVG 1.1//EN" "http://www.w3.org/Graphics/SVG/1.1/DTD/svg11.dtd">
<svg version="1.1" id="Layer_1" xmlns="http://www.w3.org/2000/svg" xmlns:xlink="http://www.w3.org/1999/xlink" x="0px" y="0px"
	 width="800px" height="200px" viewBox="0 0 800 200" enable-background="new 0 0 800 200" xml:space="preserve">
<g>
	<path d="M97.465,124.027H86.626v-29.76H56.188v29.76H45.395V58.001h10.794v27.007h30.438V58.001h10.839V124.027z"/>
	<path d="M144.973,124.027l-2.123-6.955h-0.362c-2.409,3.041-4.833,5.109-7.271,6.211c-2.437,1.1-5.57,1.646-9.394,1.646
		c-4.907,0-8.738-1.324-11.493-3.975c-2.755-2.646-4.133-6.396-4.133-11.244c0-5.148,1.912-9.033,5.736-11.652
		c3.824-2.618,9.649-4.05,17.476-4.291l8.627-0.271v-2.666c0-3.19-0.745-5.578-2.235-7.158c-1.489-1.58-3.802-2.37-6.933-2.37
		c-2.559,0-5.014,0.375-7.36,1.129c-2.348,0.755-4.607,1.643-6.775,2.666l-3.432-7.589c2.709-1.414,5.675-2.49,8.896-3.229
		c3.222-0.738,6.263-1.106,9.122-1.106c6.353,0,11.147,1.386,14.384,4.155c3.237,2.769,4.856,7.12,4.856,13.051v33.645h-7.586
		V124.027z M129.168,116.801c3.854,0,6.946-1.078,9.28-3.229c2.333-2.152,3.499-5.172,3.499-9.057v-4.335l-6.413,0.271
		c-4.998,0.181-8.632,1.015-10.905,2.507c-2.274,1.492-3.411,3.77-3.411,6.842c0,2.229,0.663,3.951,1.986,5.172
		C124.527,116.193,126.519,116.801,129.168,116.801z"/>
	<path d="M178.755,124.027l-18.968-49.949h11.199l10.161,29.039c1.745,4.877,2.799,8.818,3.161,11.832h0.362
		c0.272-2.168,1.326-6.111,3.162-11.832l10.16-29.039h11.291l-19.059,49.949H178.755z"/>
	<path d="M238.682,124.932c-7.768,0-13.843-2.268-18.222-6.797c-4.38-4.529-6.571-10.771-6.571-18.72
		c0-8.158,2.033-14.571,6.097-19.237c4.063-4.667,9.649-7.001,16.753-7.001c6.594,0,11.802,2.002,15.625,6.006
		c3.823,4.004,5.736,9.516,5.736,16.529v5.736h-33.283c0.15,4.85,1.461,8.572,3.929,11.178c2.469,2.605,5.946,3.906,10.432,3.906
		c2.951,0,5.698-0.279,8.242-0.836c2.543-0.559,5.275-1.484,8.196-2.777v8.627c-2.59,1.234-5.208,2.107-7.858,2.619
		C245.11,124.674,242.085,124.932,238.682,124.932z M236.74,81.215c-3.372,0-6.074,1.069-8.106,3.207
		c-2.033,2.137-3.245,5.254-3.636,9.349h22.671c-0.06-4.125-1.054-7.248-2.98-9.37C242.762,82.279,240.112,81.215,236.74,81.215z"/>
	<path d="M286.598,74.081h11.561l10.16,28.314c1.536,4.035,2.558,7.826,3.071,11.381h0.362c0.272-1.654,0.767-3.664,1.49-6.029
		c0.722-2.363,4.545-13.586,11.471-33.667h11.471l-21.361,56.587c-3.885,10.387-10.357,15.58-19.419,15.58
		c-2.349,0-4.636-0.258-6.863-0.77v-8.398c1.596,0.363,3.416,0.543,5.464,0.543c5.118,0,8.715-2.965,10.794-8.896l1.852-4.697
		L286.598,74.081z"/>
	<path d="M388.073,98.964c0,8.159-2.092,14.526-6.277,19.104c-4.185,4.576-10.01,6.863-17.476,6.863
		c-4.668,0-8.791-1.055-12.375-3.164c-3.584-2.107-6.338-5.133-8.265-9.076c-1.927-3.945-2.89-8.521-2.89-13.729
		c0-8.099,2.077-14.42,6.232-18.969c4.154-4.547,10.01-6.819,17.567-6.819c7.226,0,12.947,2.326,17.161,6.979
		C385.964,84.803,388.073,91.076,388.073,98.964z M351.719,98.964c0,11.53,4.26,17.297,12.781,17.297
		c8.43,0,12.644-5.766,12.644-17.297c0-11.411-4.245-17.117-12.734-17.117c-4.455,0-7.685,1.477-9.686,4.428
		C352.721,89.223,351.719,93.454,351.719,98.964z"/>
	<path d="M435.494,124.027l-1.49-6.549h-0.541c-1.477,2.318-3.574,4.139-6.301,5.465c-2.729,1.324-5.834,1.986-9.326,1.986
		c-6.053,0-10.566-1.506-13.549-4.518c-2.98-3.012-4.47-7.572-4.47-13.686V74.078h10.702v30.797c0,3.824,0.783,6.693,2.35,8.605
		c1.566,1.91,4.02,2.867,7.361,2.867c4.453,0,7.73-1.332,9.822-3.998c2.092-2.664,3.139-7.127,3.139-13.388V74.078h10.658v49.948
		h-8.355V124.027z"/>
	<path d="M526.943,124.027h-10.656V93.318c0-3.854-0.775-6.729-2.326-8.626c-1.553-1.898-4.012-2.847-7.383-2.847
		c-4.457,0-7.732,1.333-9.824,3.997c-2.094,2.665-3.139,7.128-3.139,13.391v24.792h-10.613V53.754h10.613v17.838
		c0,2.859-0.182,5.915-0.543,9.168h0.68c1.445-2.408,3.455-4.275,6.029-5.6c2.572-1.324,5.578-1.987,9.01-1.987
		c12.102,0,18.152,6.098,18.152,18.29v32.562l0,0V124.027z"/>
	<path d="M563.523,124.932c-7.768,0-13.842-2.268-18.223-6.797s-6.57-10.771-6.57-18.72c0-8.158,2.031-14.571,6.098-19.237
		c4.064-4.666,9.648-7.001,16.754-7.001c6.594,0,11.803,2.002,15.625,6.006s5.736,9.516,5.736,16.529v5.736H549.66
		c0.148,4.85,1.461,8.572,3.93,11.178s5.945,3.906,10.432,3.906c2.949,0,5.697-0.279,8.242-0.836
		c2.543-0.559,5.275-1.484,8.195-2.777v8.627c-2.588,1.234-5.207,2.107-7.857,2.619
		C569.951,124.674,566.926,124.932,563.523,124.932z M561.582,81.215c-3.373,0-6.074,1.069-8.107,3.207
		c-2.031,2.137-3.246,5.254-3.635,9.349h22.67c-0.061-4.125-1.053-7.248-2.979-9.37C567.604,82.279,564.953,81.215,561.582,81.215z"
		/>
	<path d="M626.252,124.027l-2.123-6.955h-0.363c-2.408,3.041-4.832,5.109-7.27,6.211c-2.438,1.1-5.57,1.646-9.395,1.646
		c-4.906,0-8.736-1.324-11.492-3.975c-2.758-2.646-4.135-6.396-4.135-11.244c0-5.148,1.912-9.033,5.738-11.652
		c3.822-2.618,9.648-4.05,17.475-4.291l8.627-0.271v-2.666c0-3.19-0.746-5.578-2.234-7.158c-1.49-1.58-3.801-2.37-6.932-2.37
		c-2.561,0-5.016,0.375-7.361,1.129c-2.348,0.755-4.605,1.643-6.773,2.666l-3.434-7.589c2.711-1.414,5.674-2.49,8.896-3.229
		s6.264-1.106,9.121-1.106c6.354,0,11.146,1.386,14.383,4.155c3.238,2.769,4.857,7.12,4.857,13.051v33.645h-7.588v0.002H626.252z
		 M610.443,116.801c3.855,0,6.947-1.078,9.281-3.229c2.334-2.152,3.5-5.172,3.5-9.057v-4.335l-6.412,0.271
		c-4.998,0.181-8.633,1.015-10.906,2.507s-3.412,3.77-3.412,6.842c0,2.229,0.666,3.951,1.986,5.172
		C605.807,116.193,607.795,116.801,610.443,116.801z"/>
	<path d="M673.986,73.176c2.135,0,3.896,0.15,5.283,0.452l-1.039,9.89c-1.506-0.361-3.072-0.541-4.697-0.541
		c-4.246,0-7.684,1.386-10.318,4.154c-2.633,2.77-3.953,6.369-3.953,10.794v26.104h-10.613V74.082h8.311l1.4,8.805h0.543
		c1.654-2.979,3.812-5.343,6.479-7.09C668.045,74.047,670.916,73.176,673.986,73.176z"/>
	<path d="M705.373,124.932c-6.232,0-11.094-2.26-14.588-6.775c-3.49-4.518-5.238-10.855-5.238-19.014
		c0-8.188,1.77-14.563,5.307-19.125c3.537-4.561,8.439-6.843,14.699-6.843c6.564,0,11.562,2.425,14.994,7.271h0.543
		c-0.516-3.583-0.77-6.413-0.77-8.49V53.756h10.658v70.271h-8.311l-1.852-6.547h-0.496
		C716.92,122.447,711.936,124.932,705.373,124.932z M708.219,116.35c4.367,0,7.541-1.227,9.527-3.68s3.01-6.436,3.07-11.945v-1.488
		c0-6.293-1.021-10.764-3.07-13.413s-5.252-3.975-9.619-3.975c-3.732,0-6.607,1.514-8.625,4.539s-3.025,7.338-3.025,12.938
		c0,5.541,0.979,9.761,2.936,12.667C701.367,114.898,704.305,116.35,708.219,116.35z"/>
	<path d="M751.346,103.977v-2.891c0-3.312,0.604-6.066,1.811-8.264c1.205-2.199,3.311-4.473,6.32-6.82
		c3.582-2.83,5.895-5.027,6.934-6.594s1.559-3.433,1.559-5.601c0-2.527-0.844-4.47-2.527-5.824
		c-1.684-1.355-4.109-2.033-7.271-2.033c-2.857,0-5.508,0.407-7.947,1.22c-2.438,0.813-4.816,1.792-7.135,2.935l-3.795-7.947
		c6.111-3.403,12.66-5.104,19.645-5.104c5.9,0,10.584,1.445,14.047,4.335c3.463,2.892,5.193,6.879,5.193,11.969
		c0,2.258-0.336,4.268-0.998,6.028s-1.658,3.44-3.002,5.036c-1.34,1.595-3.65,3.672-6.934,6.231
		c-2.799,2.198-4.674,4.02-5.623,5.465c-0.945,1.443-1.42,3.387-1.42,5.824v2.033h-8.855V103.977z M749.494,118.383
		c0-4.545,2.213-6.818,6.639-6.818c2.168,0,3.824,0.596,4.969,1.783c1.145,1.189,1.715,2.867,1.715,5.035
		c0,2.137-0.578,3.83-1.734,5.082c-1.16,1.25-2.809,1.875-4.945,1.875s-3.779-0.609-4.922-1.83
		C750.066,122.291,749.494,120.58,749.494,118.383z"/>
</g>
</svg>
