<?xml version="1.0" encoding="utf-8"?>
<!-- Generator: Adobe Illustrator 16.0.4, SVG Export Plug-In . SVG Version: 6.00 Build 0)  -->
<!DOCTYPE svg PUBLIC "-//W3C//DTD SVG 1.1//EN" "http://www.w3.org/Graphics/SVG/1.1/DTD/svg11.dtd">
<svg version="1.1" id="Layer_1" xmlns="http://www.w3.org/2000/svg" xmlns:xlink="http://www.w3.org/1999/xlink" x="0px" y="0px"
	 width="800px" height="800px" viewBox="0 0 800 800" enable-background="new 0 0 800 800" xml:space="preserve">
<path d="M119.791,651.209h80.39V147.791h-80.39V77.417h279.559c45.684,0,83.135,1.857,118.762,13.738
	c67.621,22.817,112.385,79.479,112.385,167.165c0,93.216-51.156,159.885-133.387,180.936v1.824c0,0,16.416,9.104,27.427,30.139
	l91.352,158.973c10.057,17.369,21.921,21.018,44.747,21.018h19.193v71.254h-54.82c-54.787,0-67.605-10.041-89.511-48.428
	L435.88,497.725c-16.449-27.427-28.313-35.644-67.589-35.644h-76.743v189.128h79.487v71.254H119.791V651.209z M421.304,387.138
	c70.333,0,116.938-45.643,116.938-121.465c0-50.26-20.13-84.975-60.325-101.441c-21.002-8.225-48.412-11.865-79.471-11.865H291.548
	v234.771H421.304z"/>
</svg>
