<?xml version="1.0" encoding="utf-8"?>
<!-- Generator: Adobe Illustrator 16.0.4, SVG Export Plug-In . SVG Version: 6.00 Build 0)  -->
<!DOCTYPE svg PUBLIC "-//W3C//DTD SVG 1.1//EN" "http://www.w3.org/Graphics/SVG/1.1/DTD/svg11.dtd">
<svg version="1.1" id="Layer_1" xmlns="http://www.w3.org/2000/svg" xmlns:xlink="http://www.w3.org/1999/xlink" x="0px" y="0px"
	 width="800px" height="800px" viewBox="0 0 800 800" enable-background="new 0 0 800 800" xml:space="preserve">
<path d="M110.797,574.062h74.734V258.179c0-14.183-7.576-20.817-20.789-20.817h-58.624v-70.924h107.778
	c41.612,0,60.507,17.988,60.507,52.97v24.588c0,15.119-2.807,27.43-2.807,27.43h1.905c9.459-25.524,65.253-116.313,186.29-116.313
	c109.695,0,158.838,61.471,158.838,183.438v235.511h75.647v70.913h-167.36V359.339c0-67.119-13.247-120.072-89.83-120.072
	c-96.46,0-159.842,87.925-159.842,183.454v151.341h75.682v70.913H110.797V574.062z"/>
</svg>
