<?xml version="1.0" encoding="utf-8"?>
<!-- Generator: Adobe Illustrator 16.0.4, SVG Export Plug-In . SVG Version: 6.00 Build 0)  -->
<!DOCTYPE svg PUBLIC "-//W3C//DTD SVG 1.1//EN" "http://www.w3.org/Graphics/SVG/1.1/DTD/svg11.dtd">
<svg version="1.1" id="Layer_1" xmlns="http://www.w3.org/2000/svg" xmlns:xlink="http://www.w3.org/1999/xlink" x="0px" y="0px"
	 width="800px" height="800px" viewBox="0 0 800 800" enable-background="new 0 0 800 800" xml:space="preserve">
<path d="M348.248,650.363c77.965,0,141.669-35.446,141.669-127.503v-35.446c0-14.166,2.66-28.343,2.66-28.343h-1.773
	c-26.537,44.282-69.066,72.613-134.576,72.613c-123.989,0-200.127-100.068-200.127-229.341
	c0-128.385,71.727-223.999,196.612-223.999c58.405,0,120.399,22.136,145.205,73.469h1.752c0,0-1.752-6.196-1.752-17.681
	c0-28.342,14.135-45.184,51.344-45.184h95.625v66.406h-49.592c-11.474,0-19.465,6.212-19.465,17.729v345.333
	c0,147.834-112.482,204.519-225.809,204.519c-53.993,0-108.873-15.053-153.186-37.178l28.332-65.52
	C225.167,620.237,280.944,650.363,348.248,650.363z M491.711,303.226c0-116.895-56.674-150.499-126.658-150.499
	c-77.005,0-121.308,56.632-121.308,147.845c0,92.975,48.715,156.759,129.298,156.759C435.037,457.33,491.711,420.11,491.711,303.226
	z"/>
</svg>
