<?xml version="1.0" encoding="utf-8"?>
<!-- Generator: Adobe Illustrator 16.0.4, SVG Export Plug-In . SVG Version: 6.00 Build 0)  -->
<!DOCTYPE svg PUBLIC "-//W3C//DTD SVG 1.1//EN" "http://www.w3.org/Graphics/SVG/1.1/DTD/svg11.dtd">
<svg version="1.1" id="Layer_1" xmlns="http://www.w3.org/2000/svg" xmlns:xlink="http://www.w3.org/1999/xlink" x="0px" y="0px"
	 width="800px" height="800px" viewBox="0 0 800 800" enable-background="new 0 0 800 800" xml:space="preserve">
<path d="M360.534,257.356c95.836,0,129.999,70.801,129.999,70.801h1.68c0,0-2.504-13.307-2.504-31.67V163.165h-70.016v-62.511
	h150.861v507.5c0,12.527,6.676,18.368,18.299,18.368h42.538v62.486h-84.202c-37.473,0-52.503-18.329-52.503-45.837v-5.841
	c0-14.146,2.513-22.491,2.513-22.491h-1.648c0,0-34.184,84.163-142.497,84.163c-113.339,0-184.161-90.005-184.161-220.839
	C168.893,344.008,247.22,257.356,360.534,257.356z M370.568,629.006c62.477,0,121.645-44.982,121.645-149.977
	c0-77.518-39.181-150.872-119.171-150.872c-67.503,0-121.655,54.162-121.655,150.006
	C251.387,569.848,300.552,629.006,370.568,629.006z"/>
</svg>
